<svg width="165" height="150" viewBox="0 0 165 150" fill="none" xmlns="http://www.w3.org/2000/svg">
<path d="M50.0311 128.868H44.8036L43.6903 131.948H40.9076L45.8567 118.691H48.9774L53.9265 131.948H51.124L50.0308 128.868H50.0311ZM49.1567 126.403L47.4076 121.513L45.6584 126.403H49.1567ZM55.1397 118.691H57.7834V129.504H62.5538V131.948H55.14L55.1397 118.691ZM71.0408 118.691V121.135H66.5288V124.018H70.6431V126.462H66.5288V131.948H63.8851V118.691H71.0406H71.0408ZM80.8003 118.691V121.155H77.6201V131.948H74.9765V121.155H71.7963V118.691H80.8003ZM80.9397 125.349C80.9397 124.091 81.2578 122.918 81.8937 121.831C82.5163 120.785 83.3576 119.956 84.4181 119.347C85.5044 118.711 86.6774 118.393 87.9365 118.393C89.1956 118.393 90.368 118.711 91.4546 119.347C92.5145 119.956 93.3555 120.785 93.9784 121.831C94.6146 122.918 94.9327 124.084 94.9327 125.329C94.9327 126.575 94.6146 127.735 93.9784 128.808C93.3555 129.855 92.5145 130.69 91.4546 131.312C90.368 131.948 89.195 132.266 87.9365 132.266C86.6779 132.266 85.5044 131.948 84.4181 131.312C83.3712 130.69 82.5296 129.855 81.8937 128.808C81.2575 127.735 80.9397 126.582 80.9397 125.349ZM83.623 125.329C83.623 126.641 84.1 127.741 85.054 128.629C85.8755 129.398 86.836 129.782 87.9365 129.782C89.2083 129.782 90.2751 129.292 91.1365 128.311C91.8916 127.463 92.2695 126.469 92.2695 125.329C92.2695 124.005 91.7919 122.898 90.8382 122.01C90.0167 121.242 89.0497 120.857 87.9365 120.857C86.6508 120.857 85.5775 121.348 84.7161 122.328C83.9872 123.176 83.623 124.177 83.623 125.329ZM96.0859 125.349C96.0859 124.091 96.4037 122.918 97.0399 121.831C97.6625 120.785 98.5038 119.956 99.564 119.347C100.651 118.711 101.823 118.393 103.082 118.393C104.341 118.393 105.514 118.711 106.6 119.347C107.66 119.956 108.502 120.785 109.125 121.831C109.761 122.918 110.079 124.084 110.079 125.329C110.079 126.575 109.761 127.735 109.125 128.808C108.502 129.855 107.66 130.69 106.6 131.312C105.514 131.948 104.341 132.266 103.082 132.266C101.824 132.266 100.651 131.948 99.564 131.312C98.5174 130.69 97.6758 129.855 97.0399 128.808C96.4037 127.735 96.0859 126.582 96.0859 125.349ZM98.7692 125.329C98.7692 126.641 99.2465 127.741 100.201 128.629C101.022 129.398 101.983 129.782 103.083 129.782C104.355 129.782 105.421 129.292 106.283 128.311C107.038 127.463 107.416 126.469 107.416 125.329C107.416 124.005 106.938 122.898 105.984 122.01C105.163 121.242 104.196 120.857 103.083 120.857C101.797 120.857 100.724 121.348 99.8626 122.328C99.1338 123.176 98.7692 124.177 98.7692 125.329ZM111.987 131.948V118.691H114.233L120.733 127.317V118.691H123.396V131.948H121.15L114.63 123.322V131.948H111.987H111.987Z" fill="url(#paint0_linear_747_640)"/>
<path d="M56.5337 149.079H55.1182L54.8168 149.914H54.0634L55.4035 146.324H56.2484L57.5885 149.914H56.8297L56.5337 149.079ZM56.2969 148.412L55.8233 147.088L55.3496 148.412H56.2969ZM58.4766 146.324H59.1923V149.252H60.484V149.914H58.4766V146.324ZM63.3418 146.324V146.986H62.1201V147.766H63.2342V148.428H62.1201V149.914H61.4043V146.324H63.3418ZM66.5441 146.324V146.991H65.683V149.914H64.9672V146.991H64.1061V146.324H66.5441ZM67.1415 148.127C67.1415 147.786 67.2276 147.469 67.3998 147.174C67.5684 146.891 67.7961 146.667 68.0833 146.502C68.3776 146.33 68.6952 146.243 69.0359 146.243C69.3767 146.243 69.6945 146.33 69.9885 146.502C70.2755 146.667 70.5032 146.891 70.672 147.174C70.8443 147.469 70.9304 147.784 70.9304 148.122C70.9304 148.459 70.8443 148.773 70.672 149.064C70.5032 149.347 70.2755 149.573 69.9885 149.742C69.6942 149.914 69.3767 150 69.0359 150C68.6952 150 68.3776 149.914 68.0833 149.742C67.7998 149.573 67.572 149.347 67.3998 149.064C67.2276 148.773 67.1415 148.461 67.1415 148.127ZM67.8681 148.121C67.8681 148.477 67.9972 148.775 68.2555 149.015C68.4779 149.223 68.7382 149.327 69.0359 149.327C69.3804 149.327 69.6693 149.194 69.9024 148.929C70.1069 148.699 70.2092 148.43 70.2092 148.121C70.2092 147.763 70.08 147.463 69.8217 147.223C69.5991 147.015 69.3373 146.91 69.0359 146.91C68.6878 146.91 68.3975 147.043 68.1641 147.308C67.9666 147.538 67.8681 147.81 67.8681 148.121ZM71.8023 148.127C71.8023 147.786 71.8884 147.469 72.0606 147.174C72.2291 146.891 72.4569 146.667 72.7441 146.502C73.0384 146.33 73.3559 146.243 73.6967 146.243C74.0375 146.243 74.3553 146.33 74.6493 146.502C74.9363 146.667 75.164 146.891 75.3328 147.174C75.505 147.469 75.5911 147.784 75.5911 148.122C75.5911 148.459 75.505 148.773 75.3328 149.064C75.164 149.347 74.9363 149.573 74.6493 149.742C74.355 149.914 74.0375 150 73.6967 150C73.3559 150 73.0384 149.914 72.7441 149.742C72.4606 149.573 72.2328 149.347 72.0606 149.064C71.8884 148.773 71.8023 148.461 71.8023 148.127ZM72.5288 148.121C72.5288 148.477 72.658 148.775 72.9163 149.015C73.1387 149.223 73.399 149.327 73.6967 149.327C74.0411 149.327 74.3301 149.194 74.5632 148.929C74.7677 148.699 74.87 148.43 74.87 148.121C74.87 147.763 74.7408 147.463 74.4825 147.223C74.2598 147.015 73.9981 146.91 73.6967 146.91C73.3486 146.91 73.0582 147.043 72.8248 147.308C72.6274 147.538 72.5288 147.81 72.5288 148.121ZM76.6673 149.914V146.324H77.2754L79.0353 148.66V146.324H79.7565V149.914H79.1483L77.3831 147.578V149.914H76.6673ZM85.4344 147.406C85.2656 147.223 85.1124 147.094 84.9741 147.021C84.8359 146.947 84.6773 146.91 84.4977 146.91C84.1425 146.91 83.8502 147.043 83.6204 147.308C83.423 147.535 83.3244 147.806 83.3244 148.121C83.3244 148.48 83.4516 148.779 83.7066 149.02C83.9289 149.225 84.1926 149.327 84.4977 149.327C84.677 149.327 84.8368 149.29 84.9767 149.216C85.1166 149.143 85.2744 149.013 85.4503 148.826L85.9616 149.305C85.7103 149.567 85.4628 149.752 85.2189 149.859C85.0036 149.953 84.7668 149.999 84.5085 149.999C84.1603 149.999 83.8374 149.913 83.5397 149.741C83.2525 149.576 83.0248 149.352 82.8562 149.068C82.684 148.778 82.5979 148.462 82.5979 148.121C82.5979 147.78 82.684 147.463 82.8562 147.168C83.0248 146.885 83.2525 146.661 83.5397 146.496C83.8374 146.327 84.1586 146.243 84.5031 146.243C84.7795 146.243 85.0305 146.296 85.2566 146.404C85.4826 146.512 85.7103 146.686 85.9403 146.926L85.4342 147.405L85.4344 147.406ZM89.0891 149.079H87.6733L87.3719 149.913H86.6188L87.9589 146.324H88.8035L90.1434 149.913H89.3848L89.0888 149.079H89.0891ZM88.8523 148.412L88.3781 147.088L87.9045 148.412H88.8523ZM92.8185 149.914L92.0865 148.606H92.065C92.0146 148.609 91.9554 148.611 91.8874 148.611H91.7475V149.914H91.032V146.324H91.8877C92.25 146.324 92.5315 146.381 92.7327 146.496C92.9156 146.6 93.0573 146.749 93.1578 146.943C93.2439 147.108 93.287 147.287 93.287 147.481C93.287 147.675 93.2431 147.852 93.155 148.014C93.0669 148.175 92.9423 148.308 92.7811 148.412L93.6258 149.914H92.8185ZM91.7475 147.96H91.9305C92.1743 147.96 92.3485 147.915 92.4525 147.825C92.542 147.75 92.5871 147.633 92.5871 147.476C92.5871 147.278 92.5154 147.14 92.3718 147.061C92.2786 147.008 92.1313 146.98 91.9305 146.98H91.7475V147.96ZM99.008 147.406C98.8392 147.223 98.6856 147.094 98.5477 147.021C98.4098 146.948 98.2508 146.911 98.0713 146.911C97.716 146.911 97.4237 147.044 97.194 147.309C96.9966 147.535 96.898 147.806 96.898 148.121C96.898 148.48 97.0252 148.78 97.2801 149.02C97.5025 149.225 97.7665 149.327 98.0713 149.327C98.2508 149.327 98.4103 149.29 98.5503 149.217C98.6902 149.143 98.848 149.013 99.0239 148.826L99.5351 149.305C99.2839 149.567 99.0363 149.752 98.7924 149.86C98.5772 149.953 98.3404 149.999 98.082 149.999C97.7339 149.999 97.411 149.913 97.1133 149.741C96.826 149.576 96.5986 149.352 96.4298 149.068C96.2578 148.778 96.1714 148.462 96.1714 148.121C96.1714 147.78 96.2578 147.463 96.4298 147.169C96.5986 146.885 96.826 146.661 97.1133 146.496C97.411 146.327 97.7322 146.243 98.0766 146.243C98.3528 146.243 98.6038 146.297 98.8298 146.404C99.0562 146.512 99.2839 146.686 99.5133 146.926L99.0077 147.405L99.008 147.406ZM102.662 149.079H101.247L100.946 149.914H100.192L101.532 146.324H102.377L103.717 149.914H102.958L102.662 149.079H102.662ZM102.426 148.412L101.952 147.088L101.478 148.412H102.426ZM106.392 149.914L105.66 148.606H105.638C105.588 148.61 105.529 148.612 105.461 148.612H105.321V149.914H104.605V146.324H105.461C105.823 146.324 106.105 146.382 106.306 146.496C106.489 146.601 106.631 146.75 106.731 146.943C106.817 147.108 106.86 147.287 106.86 147.481C106.86 147.675 106.816 147.853 106.728 148.014C106.64 148.176 106.516 148.308 106.354 148.412L107.199 149.914H106.392ZM105.321 147.96H105.504C105.748 147.96 105.922 147.915 106.026 147.826C106.115 147.75 106.16 147.634 106.16 147.476C106.16 147.279 106.089 147.14 105.945 147.061C105.852 147.008 105.705 146.981 105.504 146.981H105.321V147.96ZM110.192 146.324V146.986H108.852V147.767H110.041V148.429H108.852V149.247H110.24V149.914H108.136V146.324H110.192Z" fill="url(#paint1_linear_747_640)"/>
<path d="M65.3124 137.02L65.9653 139.029H68.0785L66.369 140.271L67.0219 142.281L65.3124 141.039L63.603 142.281L64.2559 140.271L62.5464 139.029H64.6595L65.3124 137.02Z" fill="url(#paint2_linear_747_640)"/>
<path d="M73.7321 137.02L74.385 139.029H76.4981L74.7887 140.271L75.4416 142.281L73.7321 141.039L72.0226 142.281L72.6755 140.271L70.9661 139.029H73.0792L73.7321 137.02Z" fill="url(#paint3_linear_747_640)"/>
<path d="M82.1517 137.02L82.8049 139.029H84.9178L83.2083 140.271L83.8612 142.281L82.1517 141.039L80.4426 142.281L81.0955 140.271L79.386 139.029H81.4988L82.1517 137.02Z" fill="url(#paint4_linear_747_640)"/>
<path d="M90.5716 137.02L91.2245 139.029H93.3373L91.6281 140.271L92.2811 142.281L90.5716 141.039L88.8621 142.281L89.515 140.271L87.8055 139.029H89.9187L90.5716 137.02Z" fill="url(#paint5_linear_747_640)"/>
<path d="M98.9913 137.02L99.6442 139.029H101.757L100.048 140.271L100.701 142.281L98.9913 141.039L97.2818 142.281L97.9347 140.271L96.2252 139.029H98.3383L98.9913 137.02Z" fill="url(#paint6_linear_747_640)"/>
<path d="M57.1092 139.367H38.3894V139.91H57.1092V139.367Z" fill="url(#paint7_linear_747_640)"/>
<path d="M125.914 139.367H107.195V139.91H125.914V139.367Z" fill="url(#paint8_linear_747_640)"/>
<path d="M107.194 137.02V138.46H124.29L107.194 137.02Z" fill="url(#paint9_linear_747_640)"/>
<path d="M57.1092 137.02V138.46H40.0133L57.1092 137.02Z" fill="url(#paint10_linear_747_640)"/>
<path d="M107.194 142.151V140.712H124.29L107.194 142.151Z" fill="url(#paint11_linear_747_640)"/>
<path d="M57.1092 142.151V140.712H40.0133L57.1092 142.151Z" fill="url(#paint12_linear_747_640)"/>
<path d="M82.152 115.381L101.201 98.9089L101.238 98.8766V75.8962L82.2441 59.4697L82.152 59.3901L82.0599 59.4697L63.0659 75.8962V98.8766L63.1033 98.9089L82.152 115.381ZM82.152 59.7053L100.979 75.9874V98.7851L82.152 115.066L63.3248 98.7851V75.9874L82.152 59.7053Z" fill="url(#paint13_linear_747_640)"/>
<path d="M158.085 52.1497L133.063 64.8465C130.208 66.2954 128.286 69.0969 127.962 72.2821L127.032 81.419L143.736 74.8224C150.959 71.97 156.764 66.3818 159.888 59.2725L164.304 49.2239L158.879 51.7712L158.086 52.15L158.085 52.1497Z" fill="url(#paint14_linear_747_640)"/>
<path d="M6.21841 52.1497L31.2405 64.8465C34.0958 66.2954 36.0177 69.0969 36.3417 72.2821L37.2714 81.419L20.5673 74.8224C13.3447 71.97 7.54011 66.3818 4.41603 59.2725L0 49.2239L5.42444 51.7712L6.21813 52.15L6.21841 52.1497Z" fill="url(#paint15_linear_747_640)"/>
<path d="M126.318 93.0516L126.311 93.1587L142.049 88.1232C144.57 87.3164 146.663 85.5325 147.858 83.1706L152.207 74.5737L133.915 82.3752C129.578 84.2246 126.644 88.3483 126.318 93.0516Z" fill="url(#paint16_linear_747_640)"/>
<path d="M37.9858 93.0516L37.9931 93.1587L22.2543 88.1232C19.7333 87.3164 17.6411 85.5325 16.4461 83.1706L12.0963 74.5737L30.3893 82.3752C34.7257 84.2246 37.66 88.3483 37.9858 93.0516Z" fill="url(#paint17_linear_747_640)"/>
<path d="M129.637 62.43L144.363 54.846C152.045 50.8897 157.964 44.1974 160.954 36.0902L164.304 27.0066L116.775 60.3282L114.367 87.4099C114.114 90.2538 112.899 92.9139 110.941 94.9639L113.293 58.5406C113.293 58.5406 139.07 35.7854 147.757 29.1758C156.443 22.5665 159.465 0 159.465 0L95.6086 59.6459L104.229 68.2658V100.935L104.224 100.981L92.4902 111.388C95.9913 111.388 99.4111 110.334 102.305 108.364L118.366 97.4288C120.804 95.7686 122.377 93.1083 122.655 90.1714L124.579 69.903C124.882 66.7132 126.788 63.8968 129.636 62.4297L129.637 62.43Z" fill="url(#paint18_linear_747_640)"/>
<path d="M34.6672 62.43L19.9413 54.846C12.2593 50.8897 6.33945 44.1974 3.34992 36.0902L0.000366211 27.0066L47.5286 60.3282L49.9366 87.4099C50.1896 90.2538 51.4053 92.9139 53.3632 94.9639L51.0107 58.5406C51.0107 58.5406 25.2341 35.7854 16.5473 29.1758C7.86056 22.5665 4.8393 0 4.8393 0L68.695 59.6459L60.0751 68.2658V100.935L60.0796 100.981L71.8137 111.388C68.3126 111.388 64.8928 110.334 61.9987 108.364L45.9381 97.4288C43.4995 95.7686 41.9272 93.1083 41.6484 90.1714L39.7248 69.903C39.422 66.7132 37.5162 63.8968 34.6678 62.4297L34.6672 62.43Z" fill="url(#paint19_linear_747_640)"/>
<path d="M82.1517 114.263L100.454 98.4361V76.3367L82.1517 60.5081L63.8491 76.3367V98.4361L82.1517 114.263ZM82.1517 66.5447L95.9097 78.4427V96.3295L82.1517 108.227L68.394 96.3295V78.4427L82.1517 66.5447Z" fill="url(#paint20_linear_747_640)"/>
<path d="M88.5319 77.5949V81.5671H81.2003V86.2505H87.8855V90.2227H81.2003V99.1369H76.9049V77.5949H88.5316H88.5319Z" fill="url(#paint21_linear_747_640)"/>
<defs>
<linearGradient id="paint0_linear_747_640" x1="40.9079" y1="125.33" x2="123.396" y2="125.33" gradientUnits="userSpaceOnUse">
<stop stop-color="#E5C67D"/>
<stop offset="1" stop-color="#A78C50"/>
</linearGradient>
<linearGradient id="paint1_linear_747_640" x1="54.0635" y1="148.121" x2="110.24" y2="148.121" gradientUnits="userSpaceOnUse">
<stop stop-color="#E5C67D"/>
<stop offset="1" stop-color="#A78C50"/>
</linearGradient>
<linearGradient id="paint2_linear_747_640" x1="62.5464" y1="139.651" x2="68.0784" y2="139.651" gradientUnits="userSpaceOnUse">
<stop stop-color="#E5C67D"/>
<stop offset="1" stop-color="#A78C50"/>
</linearGradient>
<linearGradient id="paint3_linear_747_640" x1="70.9661" y1="139.651" x2="76.4981" y2="139.651" gradientUnits="userSpaceOnUse">
<stop stop-color="#E5C67D"/>
<stop offset="1" stop-color="#A78C50"/>
</linearGradient>
<linearGradient id="paint4_linear_747_640" x1="79.386" y1="139.651" x2="84.9178" y2="139.651" gradientUnits="userSpaceOnUse">
<stop stop-color="#E5C67D"/>
<stop offset="1" stop-color="#A78C50"/>
</linearGradient>
<linearGradient id="paint5_linear_747_640" x1="87.8056" y1="139.651" x2="93.3373" y2="139.651" gradientUnits="userSpaceOnUse">
<stop stop-color="#E5C67D"/>
<stop offset="1" stop-color="#A78C50"/>
</linearGradient>
<linearGradient id="paint6_linear_747_640" x1="96.2252" y1="139.651" x2="101.757" y2="139.651" gradientUnits="userSpaceOnUse">
<stop stop-color="#E5C67D"/>
<stop offset="1" stop-color="#A78C50"/>
</linearGradient>
<linearGradient id="paint7_linear_747_640" x1="38.3895" y1="139.638" x2="57.1092" y2="139.638" gradientUnits="userSpaceOnUse">
<stop stop-color="#E5C67D"/>
<stop offset="1" stop-color="#A78C50"/>
</linearGradient>
<linearGradient id="paint8_linear_747_640" x1="107.195" y1="139.638" x2="125.914" y2="139.638" gradientUnits="userSpaceOnUse">
<stop stop-color="#E5C67D"/>
<stop offset="1" stop-color="#A78C50"/>
</linearGradient>
<linearGradient id="paint9_linear_747_640" x1="107.195" y1="137.74" x2="124.29" y2="137.74" gradientUnits="userSpaceOnUse">
<stop stop-color="#E5C67D"/>
<stop offset="1" stop-color="#A78C50"/>
</linearGradient>
<linearGradient id="paint10_linear_747_640" x1="40.0134" y1="137.74" x2="57.1091" y2="137.74" gradientUnits="userSpaceOnUse">
<stop stop-color="#E5C67D"/>
<stop offset="1" stop-color="#A78C50"/>
</linearGradient>
<linearGradient id="paint11_linear_747_640" x1="107.195" y1="141.432" x2="124.29" y2="141.432" gradientUnits="userSpaceOnUse">
<stop stop-color="#E5C67D"/>
<stop offset="1" stop-color="#A78C50"/>
</linearGradient>
<linearGradient id="paint12_linear_747_640" x1="40.0134" y1="141.432" x2="57.1091" y2="141.432" gradientUnits="userSpaceOnUse">
<stop stop-color="#E5C67D"/>
<stop offset="1" stop-color="#A78C50"/>
</linearGradient>
<linearGradient id="paint13_linear_747_640" x1="63.066" y1="87.3863" x2="101.238" y2="87.3863" gradientUnits="userSpaceOnUse">
<stop stop-color="#E5C67D"/>
<stop offset="1" stop-color="#A78C50"/>
</linearGradient>
<linearGradient id="paint14_linear_747_640" x1="127.032" y1="65.3218" x2="164.304" y2="65.3218" gradientUnits="userSpaceOnUse">
<stop stop-color="#E5C67D"/>
<stop offset="1" stop-color="#A78C50"/>
</linearGradient>
<linearGradient id="paint15_linear_747_640" x1="0.000127988" y1="65.3218" x2="37.2713" y2="65.3218" gradientUnits="userSpaceOnUse">
<stop stop-color="#E5C67D"/>
<stop offset="1" stop-color="#A78C50"/>
</linearGradient>
<linearGradient id="paint16_linear_747_640" x1="126.311" y1="83.8664" x2="152.207" y2="83.8664" gradientUnits="userSpaceOnUse">
<stop stop-color="#E5C67D"/>
<stop offset="1" stop-color="#A78C50"/>
</linearGradient>
<linearGradient id="paint17_linear_747_640" x1="12.0964" y1="83.8664" x2="37.993" y2="83.8664" gradientUnits="userSpaceOnUse">
<stop stop-color="#E5C67D"/>
<stop offset="1" stop-color="#A78C50"/>
</linearGradient>
<linearGradient id="paint18_linear_747_640" x1="92.4905" y1="55.6951" x2="164.303" y2="55.6951" gradientUnits="userSpaceOnUse">
<stop stop-color="#E5C67D"/>
<stop offset="1" stop-color="#A78C50"/>
</linearGradient>
<linearGradient id="paint19_linear_747_640" x1="0.000612813" y1="55.6951" x2="71.8134" y2="55.6951" gradientUnits="userSpaceOnUse">
<stop stop-color="#E5C67D"/>
<stop offset="1" stop-color="#A78C50"/>
</linearGradient>
<linearGradient id="paint20_linear_747_640" x1="63.8492" y1="87.3863" x2="100.454" y2="87.3863" gradientUnits="userSpaceOnUse">
<stop stop-color="#E5C67D"/>
<stop offset="1" stop-color="#A78C50"/>
</linearGradient>
<linearGradient id="paint21_linear_747_640" x1="76.9049" y1="88.3661" x2="88.5319" y2="88.3661" gradientUnits="userSpaceOnUse">
<stop stop-color="#E5C67D"/>
<stop offset="1" stop-color="#A78C50"/>
</linearGradient>
</defs>
</svg>
